#!OML:ASF X:\für Bonn\!DataBase\2005_08_11_Bastian_Final\c3d\Bastian.ASF
:FULLY-SPECIFIED
:DEGREES
271
root -0.694831 6.07902 26.1424 -952.141 -24.3621 -881.992
lowerback 72.4141 3.82418 10.7171
upperback 23.9821 -5.56805 -0.692972
thorax 6.49865 -8.23569 -3.95286
lowerneck -22.5791 -10.9876 -6.99811
upperneck -4.58032 -15.0164 16.0885
head 3.93864 -7.45284 4.45831
rclavicle 6.36111e-015 -1.59028e-014
rhumerus 3.72801 32.1266 -54.5541
rradius 50.6008
rwrist -6.45468
rhand -17.5891 7.12439
rfingers 7.12502
rthumb 8.66687 -22.6777
lclavicle 6.36111e-015 -1.59028e-014
lhumerus -183.678 -200.588 247.74
lradius 13.3268
lwrist 41.7297
lhand -30.4485 -12.4938
lfingers 7.12502
lthumb -3.75055 17.453
rfemur -60.9929 -35.656 14.7902
rtibia 134.918
rfoot -22.4414 6.44885
rtoes -26.7457
lfemur -71.8623 12.1783 -31.1925
ltibia 131.949
lfoot -13.0099 -9.05084
ltoes 19.1583
272
root -0.728688 6.02518 26.1634 -952.56 -23.9856 -881.882
lowerback 72.1702 3.74743 10.8974
upperback 24.0141 -5.55454 -0.581864
thorax 6.53661 -8.24957 -3.91794
lowerneck -22.4652 -10.9476 -7.12076
upperneck -4.55982 -14.9266 16.0696
head 3.92619 -7.40492 4.4878
rclavicle -3.18055e-015 1.59028e-014
rhumerus 2.99645 32.8889 -54.8971
rradius 50.587
rwrist -6.24016
rhand -17.6409 6.74333
rfingers 7.12502
rthumb 8.61691 -23.0608
lclavicle -3.18055e-015 1.59028e-014
lhumerus -184.184 -200.05 248.031
lradius 13.5244
lwrist 42.3898
lhand -30.6312 -12.4501
lfingers 7.12502
lthumb -3.92704 17.4935
rfemur -60.8611 -35.4844 14.6968
rtibia 135.025
rfoot -22.2923 6.64458
rtoes -27.1058
lfemur -72.1498 12.0038 -31.5865
ltibia 131
lfoot -12.0298 -8.3692
ltoes 18.0035
273
root -0.760998 5.97159 26.1847 -952.969 -23.6357 -881.77
lowerback 71.9365 3.67343 11.0449
upperback 24.0341 -5.55373 -0.464079
thorax 6.56091 -8.27296 -3.85587
lowerneck -22.3267 -10.9038 -7.25934
upperneck -4.56474 -14.8296 16.0722
head 3.90492 -7.35551 4.52867
rclavicle -1.65389e-013 1.59028e-015
rhumerus 2.25502 33.6596 -55.2862
rradius 50.5216
rwrist -5.95793
rhand -17.6371 6.39366
rfingers 7.12502
rthumb 8.62052 -23.4103
lclavicle -1.65389e-013 1.59028e-015
lhumerus -184.715 -199.426 248.303
lradius 13.7613
lwrist 43.1756
lhand -30.7869 -12.3389
lfingers 7.12502
lthumb -4.07736 17.6019
rfemur -60.7744 -35.3552 14.6162
rtibia 135.137
rfoot -22.1424 6.80401
rtoes -27.4033
lfemur -72.3945 11.8188 -31.9762
ltibia 129.993
lfoot -10.8579 -7.53912
ltoes 17.3821
274
root -0.792819 5.91805 26.2062 -953.365 -23.3049 -881.664
lowerback 71.695 3.56519 11.2242
upperback 24.0524 -5.56147 -0.373439
thorax 6.58084 -8.28675 -3.83358
lowerneck -22.1022 -10.8786 -7.39446
upperneck -4.65083 -14.7586 16.0996
head 3.85137 -7.3275 4.57806
rclavicle 7.95139e-014 1.28812e-013
rhumerus 1.45105 34.4942 -55.7408
rradius 50.4353
rwrist -5.82151
rhand -17.6065 5.97666
rfingers 7.12502
rthumb 8.65009 -23.8261
lclavicle 7.95139e-014 1.28812e-013
lhumerus -185.232 -198.93 248.567
lradius 13.992
lwrist 43.7778
lhand -30.9555 -12.2251
lfingers 7.12502
lthumb -4.24014 17.7125
rfemur -60.709 -35.2929 14.5083
rtibia 135.239
rfoot -21.9668 7.06117
rtoes -27.6869
lfemur -72.6138 11.6246 -32.3755
ltibia 128.932
lfoot -9.62769 -6.61677
ltoes 16.4474
275
root -0.823313 5.8642 26.2275 -953.747 -22.9611 -881.547
lowerback 71.4346 3.46949 11.4016
upperback 24.0786 -5.56294 -0.252199
thorax 6.61346 -8.30429 -3.78112
lowerneck -21.9182 -10.8665 -7.56461
upperneck -4.72058 -14.6959 16.0995
head 3.80857 -7.30174 4.62133
rclavicle -1.145e-013 8.5875e-014
rhumerus 0.692903 35.3704 -56.1768
rradius 50.293
rwrist -5.70173
rhand -17.6524 5.55892
rfingers 7.12502
rthumb 8.60579 -24.2457
lclavicle -1.145e-013 8.5875e-014
lhumerus -185.734 -198.61 248.871
lradius 14.2526
lwrist 44.2853
lhand -31.0193 -12.0935
lfingers 7.12502
lthumb -4.30176 17.8428
rfemur -60.6936 -35.2276 14.4732
rtibia 135.349
rfoot -21.7798 7.24047
rtoes -27.9192
lfemur -72.8069 11.419 -32.7305
ltibia 127.797
lfoot -8.29347 -5.717
ltoes 14.8922
276
root -0.852073 5.81112 26.2482 -954.115 -22.5997 -881.424
lowerback 71.1815 3.37022 11.5927
upperback 24.0952 -5.55451 -0.149302
thorax 6.63453 -8.30954 -3.75623
lowerneck -21.6851 -10.8455 -7.71321
upperneck -4.8669 -14.6288 16.1249
head 3.73593 -7.28156 4.67357
rclavicle 1.17681e-013 3.49861e-014
rhumerus -0.0460711 36.1605 -56.7609
rradius 49.9625
rwrist -5.53224
rhand -17.6181 5.26086
rfingers 7.12502
rthumb 8.63892 -24.5424
lclavicle 1.17681e-013 3.49861e-014
lhumerus -186.303 -198.212 249.144
lradius 14.6717
lwrist 44.8225
lhand -31.1554 -11.7877
lfingers 7.12502
lthumb -4.43317 18.1459
rfemur -60.7062 -35.1231 14.5034
rtibia 135.454
rfoot -21.5858 7.40398
rtoes -28.2028
lfemur -72.9502 11.2618 -33.0504
ltibia 126.583
lfoot -6.95507 -4.87132
ltoes 12.4671
277
root -0.880242 5.75707 26.2677 -954.486 -22.2339 -881.279
lowerback 70.9292 3.27001 11.7887
upperback 24.1097 -5.54509 -0.0274226
thorax 6.657 -8.31755 -3.71281
lowerneck -21.4981 -10.8301 -7.88513
upperneck -4.96104 -14.5647 16.1507
head 3.68771 -7.25647 4.72581
rclavicle -1.59028e-014 -9.06458e-014
rhumerus -0.796315 37.0273 -57.3373
rradius 49.6309
rwrist -5.41654
rhand -17.6062 4.886
rfingers 7.12502
rthumb 8.65034 -24.9168
lclavicle -1.59028e-014 -9.06458e-014
lhumerus -186.895 -197.688 249.42
lradius 15.1441
lwrist 45.5053
lhand -31.2503 -11.4515
lfingers 7.12502
lthumb -4.5248 18.4801
rfemur -60.7028 -35.0681 14.54
rtibia 135.559
rfoot -21.3809 7.60651
rtoes -28.3496
lfemur -73.048 11.0821 -33.3158
ltibia 125.333
lfoot -5.67435 -4.19933
ltoes 10.1857
278
root -0.907844 5.70176 26.2872 -954.858 -21.8892 -881.165
lowerback 70.7277 3.17416 11.9548
upperback 24.0999 -5.54275 0.0771667
thorax 6.65091 -8.32918 -3.66869
lowerneck -21.2526 -10.7918 -7.99808
upperneck -5.10511 -14.4833 16.1498
head 3.60717 -7.23014 4.76733
rclavicle 0 6.04305e-014
rhumerus -1.6051 37.9568 -57.9708
rradius 49.3204
rwrist -5.41246
rhand -17.5825 4.49114
rfingers 7.12502
rthumb 8.67327 -25.3107
lclavicle 0 6.04305e-014
lhumerus -187.5 -197.274 249.65
lradius 15.5966
lwrist 46.102
lhand -31.3109 -11.1683
lfingers 7.12502
lthumb -4.5834 18.7621
rfemur -60.735 -34.9839 14.5548
rtibia 135.67
rfoot -21.18 7.79547
rtoes -28.6223
lfemur -73.0847 10.8934 -33.5711
ltibia 124.083
lfoot -4.54347 -3.70634
ltoes 8.91895
279
root -0.934639 5.64694 26.3057 -955.197 -21.5201 -881.033
lowerback 70.5007 3.09979 12.1145
upperback 24.0913 -5.52072 0.207927
thorax 6.64827 -8.3352 -3.6006
lowerneck -21.0623 -10.7593 -8.12138
upperneck -5.21481 -14.4075 16.1342
head 3.54465 -7.20267 4.8022
rclavicle 0 -4.13472e-014
rhumerus -2.42141 38.9488 -58.588
rradius 49.0147
rwrist -5.40707
rhand -17.5857 4.06827
rfingers 7.12502
rthumb 8.67012 -25.7337
lclavicle 0 -4.13472e-014
lhumerus -188.108 -196.934 249.91
lradius 16.0872
lwrist 46.632
lhand -31.3874 -10.7743
lfingers 7.12502
lthumb -4.65721 19.1545
rfemur -60.8113 -34.8628 14.6546
rtibia 135.774
rfoot -20.9444 7.93021
rtoes -28.8694
lfemur -73.0986 10.71 -33.7824
ltibia 122.836
lfoot -3.61472 -3.3676
ltoes 8.1955
280
root -0.960006 5.59056 26.3234 -955.591 -21.1532 -880.89
lowerback 70.3512 3.02021 12.2936
upperback 24.0678 -5.49714 0.350969
thorax 6.63766 -8.34696 -3.52404
lowerneck -20.893 -10.7176 -8.20157
upperneck -5.31532 -14.3283 16.083
head 3.48091 -7.17395 4.81936
rclavicle -5.40694e-014 6.36111e-015
rhumerus -3.28236 39.9117 -59.2704
rradius 48.663
rwrist -5.35998
rhand -17.5717 3.68804
rfingers 7.12502
rthumb 8.68371 -26.1133
lclavicle -5.40694e-014 6.36111e-015
lhumerus -188.689 -196.766 250.159
lradius 16.5366
lwrist 46.9579
lhand -31.4501 -10.4271
lfingers 7.12502
lthumb -4.71778 19.5004
rfemur -60.8077 -34.8164 14.7092
rtibia 135.889
rfoot -20.7553 8.10786
rtoes -29.1126
lfemur -73.0021 10.5765 -33.976
ltibia 121.579
lfoot -2.80373 -3.12243
ltoes 7.32077
